Coordinates
version=1
nRows=17
nColumns=40
inDegrees=yes

Units are S.I. units (second, meters, Newtons, ...)
Angles are in degrees.

endheader
time	pelvis_tilt	pelvis_list	pelvis_rotation	pelvis_tx	pelvis_ty	pelvis_tz	hip_flexion_r	hip_adduction_r	hip_rotation_r	knee_angle_r	knee_angle_r_beta	ankle_angle_r	subtalar_angle_r	mtp_angle_r	hip_flexion_l	hip_adduction_l	hip_rotation_l	knee_angle_l	knee_angle_l_beta	ankle_angle_l	subtalar_angle_l	mtp_angle_l	lumbar_extension	lumbar_bending	lumbar_rotation	arm_flex_r	arm_add_r	arm_rot_r	elbow_flex_r	pro_sup_r	wrist_flex_r	wrist_dev_r	arm_flex_l	arm_add_l	arm_rot_l	elbow_flex_l	pro_sup_l	wrist_flex_l	wrist_dev_l
      0.88000000	      0.90020649	     -4.43058892	     -0.67023563	     -0.82848679	      0.89964310	     -1.43567537	     16.47929001	      4.75130584	    -18.30106005	    -18.32750669	     -0.31987534	     -1.98451186	      1.21603299	      0.09421028	    -10.52472154	      4.64164083	      9.87601203	    -27.05582020	     -0.47221314	      2.84683187	     -3.00494585	     -4.37695900	     -7.22635747	      8.61328505	     -3.17813096	      2.97725425	     -8.83557234	     19.94290066	     12.40812690	     89.95437384	      0.00000000	      0.00000000	      9.57965076	      5.16145171	    -12.31462552	     23.58343495	     89.95437384	      0.00000000	      0.00000000
      0.89000000	      0.83105405	     -4.27221028	     -0.80278077	     -0.82028538	      0.90050298	     -1.43422732	     15.83772025	      4.67266506	    -18.60678456	    -18.13732447	     -0.31655603	     -1.53852930	      1.40740334	     -0.00276034	     -9.85775143	      4.67735451	      9.89000086	    -28.82318283	     -0.50305944	      1.49588839	     -2.67360258	     -4.20774432	     -7.11158284	      8.35896999	     -2.76054944	      2.93858116	     -8.87836033	     19.97172094	     12.43292873	     89.95437384	      0.00000000	      0.00000000	      9.03269084	      5.16794575	    -12.31095791	     22.90866739	     89.95437384	      0.00000000	      0.00000000
      0.90000000	      0.47683851	     -4.73601878	     -0.35007869	     -0.81210191	      0.90062295	     -1.43293488	     15.46690839	      5.13443099	    -19.55417893	    -17.89061936	     -0.31225021	     -1.07150068	      2.91284478	     -0.52699965	     -8.34377279	      6.08248471	     10.92200130	    -31.43509347	     -0.54864588	     -0.97273347	     -3.99869134	     -4.50751934	     -6.54729239	      8.82332843	     -3.05307035	      2.91141240	     -8.92956769	     20.05178836	     12.52670875	     89.95437384	      0.00000000	      0.00000000	      8.52525051	      5.15914311	    -12.40444981	     21.80260756	     89.95437384	      0.00000000	      0.00000000
      0.91000000	      0.50902269	     -4.65580660	     -0.20622094	     -0.80413951	      0.90133852	     -1.43182197	     14.76393269	      5.11346711	    -19.74749113	    -17.78329775	     -0.31037710	     -0.40179179	      3.23944700	     -0.73321179	     -7.45965286	      6.41892622	     11.14474194	    -33.49019949	     -0.58451425	     -3.17315070	     -3.33689330	     -4.28339547	     -6.53063421	      8.67738846	     -2.97999861	      3.01891161	     -8.95527826	     20.10579127	     12.52481092	     89.95437384	      0.00000000	      0.00000000	      8.12180371	      5.21129577	    -12.52719149	     20.85116730	     89.95437384	      0.00000000	      0.00000000
      0.92000000	      0.47828377	     -4.71426625	     -0.01745796	     -0.79631249	      0.90173956	     -1.43057603	     14.14178733	      5.20987188	    -20.17274409	    -17.65560615	     -0.30814846	      0.10621510	      3.79759461	     -0.98552392	     -6.34077414	      7.04172465	     11.44902858	    -35.81279121	     -0.62505112	     -5.40450754	     -2.89921520	     -4.17595514	     -6.45708231	      8.66258104	     -2.89478375	      3.10609384	     -8.99522776	     20.17684897	     12.57575745	     89.95437384	      0.00000000	      0.00000000	      7.73655162	      5.27704800	    -12.67694107	     19.95353227	     89.95437384	      0.00000000	      0.00000000
      0.93000000	      0.53788855	     -4.73911214	      0.19683743	     -0.78863362	      0.90207916	     -1.42950977	     13.48387519	      5.25781331	    -20.47242485	    -17.65585828	     -0.30815286	      0.71362820	      4.27664669	     -1.21862420	     -5.28750480	      7.58479904	     11.67228815	    -38.02856072	     -0.66372359	     -8.20921518	     -2.47497946	     -3.92896154	     -6.50359310	      8.62931997	     -2.89471529	      3.32735656	     -9.05021274	     20.16066356	     12.64701788	     89.95437384	      0.00000000	      0.00000000	      7.41443845	      5.35397179	    -12.80642422	     19.00957546	     89.95437384	      0.00000000	      0.00000000
      0.94000000	      0.42312881	     -5.01076296	      0.43065831	     -0.78109440	      0.90187316	     -1.42820416	     13.12089200	      5.50918295	    -21.11785854	    -17.79642848	     -0.31060627	      1.20348559	      5.27201060	     -1.69878069	     -3.89766400	      8.58791614	     11.93946984	    -40.44795396	     -0.70594997	    -10.92677386	     -2.63134062	     -4.15232895	     -6.35403050	      8.84343083	     -2.83571103	      3.42000501	     -9.18526074	     20.39537755	     12.88029034	     89.95437384	      0.00000000	      0.00000000	      7.07191372	      5.44361930	    -12.98739924	     18.15773381	     89.95437384	      0.00000000	      0.00000000
      0.95000000	      0.72700554	     -5.01328049	      0.60000402	     -0.77368492	      0.90223632	     -1.42725269	     12.27741607	      5.56139688	    -21.17174199	    -17.89926886	     -0.31240118	      1.83198159	      5.50493899	     -1.89270306	     -3.05236074	      9.02595860	     11.83793685	    -42.58290691	     -0.74321193	    -12.58768860	     -2.00019201	     -4.05315319	     -6.72058543	      8.78684876	     -2.71703840	      3.75629696	     -9.26627422	     20.41108113	     12.91118093	     89.95437384	      0.00000000	      0.00000000	      6.85428501	      5.53604637	    -13.08127926	     17.27891640	     89.95437384	      0.00000000	      0.00000000
      0.96000000	      0.78728076	     -5.38695221	      0.82685453	     -0.76649133	      0.90207271	     -1.42618384	     11.70064119	      5.99274097	    -21.58232209	    -17.93394931	     -0.31300646	      2.46057960	      6.01021599	     -2.18701823	     -1.76734277	      9.94235011	     11.66203518	    -44.94763906	     -0.78448429	    -13.27152998	     -1.01264072	     -4.24646925	     -6.81590809	      9.12973266	     -2.52225041	      3.96549440	     -9.44026007	     20.34979769	     13.08556178	     89.95437384	      0.00000000	      0.00000000	      6.61895104	      5.58721148	    -13.22220428	     16.56192971	     89.95437384	      0.00000000	      0.00000000
      0.97000000	      1.16981343	     -5.17453977	      0.81177559	     -0.75936578	      0.90234154	     -1.42517793	     10.87723745	      5.81828990	    -21.53155879	    -18.18093386	     -0.31731716	      2.75148433	      5.95349055	     -2.24970837	     -1.02906400	     10.08193477	     11.74693000	    -46.92252293	     -0.81895252	    -12.97082537	     -0.51529904	     -4.32762371	     -7.35871202	      8.80567271	     -2.09200390	      4.26099662	     -9.57378035	     20.31251568	     13.26523012	     89.95437384	      0.00000000	      0.00000000	      6.34577940	      5.76439550	    -13.21801273	     16.21249725	     89.95437384	      0.00000000	      0.00000000
      0.98000000	      1.23162350	     -5.96909062	      1.34324163	     -0.75230471	      0.90185870	     -1.42430728	     10.24198077	      6.78732976	    -21.86287085	    -18.00011570	     -0.31416128	      3.56108371	      6.36994944	     -2.59335832	      0.53769050	     11.45057925	     11.39945676	    -49.46871512	     -0.86339196	    -11.01194724	      2.24704186	     -4.72314410	     -7.37281960	      9.63051710	     -2.20393641	      4.52156389	     -9.80148280	     20.34590091	     13.51683377	     89.95437384	      0.00000000	      0.00000000	      6.19724714	      5.78830887	    -13.41690213	     15.29583471	     89.95437384	      0.00000000	      0.00000000
      0.99000000	      1.64487355	     -6.15073244	      1.65978594	     -0.74548652	      0.90207153	     -1.42360530	      9.35955953	      7.08254855	    -21.87884382	    -18.10954415	     -0.31607117	      4.21210193	      6.26267638	     -2.75947391	      1.50038083	     12.12285904	     11.38189206	    -51.38777117	     -0.89688580	     -9.90893326	      3.76573935	     -4.95798272	     -7.89122739	      9.77352490	     -2.04045170	      4.97178724	     -9.91758222	     20.52842180	     13.42930944	     89.95437384	      0.00000000	      0.00000000	      6.06541884	      5.92345047	    -13.50048119	     14.78295324	     89.95437384	      0.00000000	      0.00000000
      1.00000000	      1.91698335	     -6.31459450	      1.78074570	     -0.73871624	      0.90215173	     -1.42268709	      8.57727874	      7.39341714	    -21.84207782	    -18.08849707	     -0.31570383	      4.65879928	      6.26376207	     -2.92546165	      2.63571308	     12.51894492	     11.12452375	    -53.17881076	     -0.92814534	     -8.44240004	      5.92667937	     -5.17380518	     -8.28010650	      9.88250440	     -1.68074395	      5.37691852	    -10.10425196	     20.52328181	     13.50719821	     89.95437384	      0.00000000	      0.00000000	      5.81595618	      6.07841955	    -13.49956334	     14.51709688	     89.95437384	      0.00000000	      0.00000000
      1.01000000	      2.30514725	     -6.31753318	      2.01163541	     -0.73193321	      0.90249612	     -1.42202938	      7.69812086	      7.51706856	    -21.75002417	    -18.12728021	     -0.31638072	      5.15168242	      6.13327923	     -3.05804168	      3.61555279	     12.70071891	     10.79460369	    -54.63138328	     -0.95349751	     -7.42181262	      7.40664097	     -5.34245392	     -8.75778951	      9.81460058	     -1.46044908	      5.83983415	    -10.20942687	     20.53619943	     13.44531157	     89.95437384	      0.00000000	      0.00000000	      5.57963017	      6.27714363	    -13.51634820	     14.29950101	     89.95437384	      0.00000000	      0.00000000
      1.02000000	      2.60087889	     -6.16918516	      2.13433126	     -0.72516945	      0.90286659	     -1.42136288	      6.90355785	      7.48230164	    -21.58347962	    -18.15527928	     -0.31686940	      5.59456040	      5.97529100	     -3.18029534	      4.58182706	     12.66152637	     10.56251545	    -55.73337299	     -0.97273086	     -6.31183931	      8.50658017	     -5.58431288	     -9.15605896	      9.58675367	     -1.16595325	      6.28095912	    -10.32008649	     20.55120376	     13.43541475	     89.95437384	      0.00000000	      0.00000000	      5.25394557	      6.53207114	    -13.52838549	     14.29871129	     89.95437384	      0.00000000	      0.00000000
      1.03000000	      2.83796786	     -5.98155011	      2.37654765	     -0.71849714	      0.90320814	     -1.42098923	      6.18249352	      7.36218009	    -21.55957417	    -18.21171141	     -0.31785433	      5.95141829	      5.80024944	     -3.32600855	      5.67494774	     12.44265369	     10.01795835	    -56.69914790	     -0.98958681	     -5.07579026	      9.19697290	     -6.00739463	     -9.44563301	      9.33764330	     -0.93384804	      6.68909414	    -10.43828108	     20.51937114	     13.38812240	     89.95437384	      0.00000000	      0.00000000	      4.91581720	      6.77970114	    -13.55282924	     14.42265838	     89.95437384	      0.00000000	      0.00000000
      1.04000000	      3.05094789	     -5.70590334	      2.36192017	     -0.71190990	      0.90367454	     -1.42026193	      5.56569047	      7.14452434	    -21.39025063	    -18.42527419	     -0.32158170	      6.08604685	      5.61553787	     -3.31270713	      6.67451056	     12.11943367	      9.74086417	    -57.30847208	     -1.00022153	     -4.54793795	      9.00905652	     -6.06125621	     -9.78446968	      8.94902409	     -0.38261098	      7.04155368	    -10.60585428	     20.47320802	     13.46353570	     89.95437384	      0.00000000	      0.00000000	      4.65502440	      7.01718745	    -13.48430533	     14.55014014	     89.95437384	      0.00000000	      0.00000000
